<?xml version="1.0" standalone="no"?>
<!DOCTYPE svg PUBLIC "-//W3C//DTD SVG 20010904//EN"
 "http://www.w3.org/TR/2001/REC-SVG-20010904/DTD/svg10.dtd">
<svg version="1.0" xmlns="http://www.w3.org/2000/svg"
 width="1306.000000pt" height="369.000000pt" viewBox="0 0 1306.000000 369.000000"
 preserveAspectRatio="xMidYMid meet">

<g transform="translate(0.000000,369.000000) scale(0.100000,-0.100000)"
fill="#FFFFFF" stroke="none">
<path d="M9695 2871 c-83 -21 -165 -100 -219 -215 -71 -150 -140 -416 -168
-648 l-12 -107 -41 -7 c-65 -11 -160 -50 -224 -93 -146 -100 -243 -263 -272
-462 -13 -91 -30 -118 -106 -168 -54 -36 -83 -39 -108 -11 -15 17 -17 32 -12
102 3 46 19 155 35 243 46 248 47 257 24 286 -18 22 -27 24 -101 24 -80 0 -81
0 -87 28 -8 36 -31 47 -99 47 -93 0 -198 -43 -299 -124 -90 -73 -194 -252
-216 -376 -7 -36 -15 -81 -19 -100 -5 -26 -20 -46 -64 -81 -88 -71 -188 -89
-267 -49 -85 43 -111 121 -117 357 l-5 171 183 4 c169 3 188 5 232 27 28 13
54 35 62 52 18 34 20 100 3 117 -8 8 -55 12 -147 12 l-134 0 55 58 c143 151
210 306 212 492 1 113 -19 183 -68 234 -73 78 -200 65 -308 -32 -125 -113
-236 -355 -293 -636 l-22 -111 -80 -3 c-69 -2 -83 -6 -102 -26 -28 -29 -38
-95 -21 -135 14 -36 52 -51 124 -51 l52 0 -2 -157 c-1 -93 -5 -158 -11 -160
-6 -2 -43 -42 -82 -88 -76 -88 -149 -145 -186 -145 -12 0 -30 9 -40 20 -15 17
-17 32 -12 102 3 46 19 155 35 243 46 248 47 257 24 286 -18 22 -27 24 -101
24 -80 0 -81 0 -87 28 -8 36 -31 47 -99 47 -180 0 -387 -160 -472 -365 -30
-75 -123 -101 -151 -43 -11 24 -10 45 7 140 25 135 26 160 5 203 -48 102 -217
78 -352 -49 -74 -69 -132 -153 -193 -277 -27 -57 -48 -90 -45 -74 3 17 8 50
11 75 4 25 22 111 41 191 19 81 34 151 34 157 0 60 -162 54 -220 -8 -45 -48
-94 -244 -109 -440 l-8 -105 -62 -56 c-77 -71 -119 -92 -197 -97 -47 -3 -69 0
-101 17 -88 45 -114 120 -120 358 l-5 171 183 4 c169 3 188 5 232 27 28 13 54
35 62 52 18 34 20 100 3 117 -8 8 -55 12 -147 12 l-134 0 55 58 c143 151 210
306 212 492 1 113 -19 183 -68 234 -73 78 -200 65 -308 -32 -125 -113 -236
-355 -293 -636 l-22 -111 -80 -3 c-69 -2 -83 -6 -102 -26 -28 -29 -38 -95 -21
-135 14 -36 52 -51 124 -51 l52 0 -2 -155 -1 -154 -84 -92 c-46 -51 -102 -105
-123 -121 -44 -32 -96 -37 -117 -11 -22 26 -14 120 26 313 46 228 53 305 31
352 -50 105 -218 83 -354 -46 -74 -69 -132 -153 -193 -277 -27 -57 -48 -90
-45 -74 3 17 8 50 11 75 4 25 22 111 41 191 19 81 34 151 34 157 0 60 -162 54
-220 -8 -27 -29 -60 -123 -82 -235 -6 -33 -16 -63 -21 -67 -6 -3 -31 -9 -56
-12 -25 -4 -58 -9 -72 -12 -25 -5 -27 -2 -43 63 -22 92 -49 144 -107 207 -72
79 -128 101 -254 101 -92 0 -106 -3 -168 -32 -180 -85 -287 -273 -287 -504 l0
-87 -92 -31 c-147 -49 -214 -61 -353 -67 -375 -17 -575 145 -592 479 -14 262
60 495 206 649 165 176 440 210 511 63 23 -47 25 -96 8 -211 -11 -74 -10 -85
6 -109 43 -65 150 -70 210 -10 84 84 99 296 30 441 -13 28 -49 74 -79 103 -94
89 -188 116 -377 109 -103 -4 -137 -10 -210 -35 -169 -59 -315 -169 -416 -316
-134 -195 -195 -405 -195 -672 0 -111 5 -156 21 -218 96 -352 398 -541 837
-524 197 8 435 59 550 119 27 15 29 14 67 -23 22 -21 65 -51 96 -66 50 -24 69
-27 157 -28 92 0 106 3 166 31 90 43 168 122 212 216 19 40 38 85 41 100 7 30
15 33 107 42 l57 6 7 -113 c15 -229 56 -299 167 -284 65 9 85 37 129 185 48
162 102 287 163 381 69 108 123 121 110 26 -3 -22 -15 -87 -25 -145 -27 -142
-34 -246 -20 -296 27 -101 99 -154 207 -154 126 0 241 59 368 189 l60 60 28
-52 c41 -73 101 -131 172 -164 55 -25 71 -28 171 -27 128 0 186 18 273 84 49
38 72 43 72 18 0 -5 7 -25 16 -44 22 -46 65 -68 122 -61 70 8 87 33 138 200
24 81 62 185 84 233 46 100 121 210 150 219 37 12 43 -3 36 -87 -7 -87 4 -146
36 -191 43 -60 161 -91 254 -68 25 7 48 10 50 8 2 -2 9 -30 15 -62 15 -81 49
-145 104 -193 114 -101 294 -75 403 57 35 43 43 49 49 34 17 -47 65 -101 113
-127 107 -58 217 -19 368 131 52 51 96 92 97 91 1 -2 13 -23 25 -47 34 -69
103 -135 173 -167 57 -26 71 -29 172 -28 128 0 186 18 273 84 29 22 54 40 55
40 2 0 28 -24 58 -54 44 -42 67 -56 109 -66 115 -28 228 12 308 109 35 43 43
49 49 34 29 -80 125 -153 202 -153 59 0 135 32 202 85 l59 47 43 -44 c64 -66
106 -83 207 -83 75 0 91 3 138 30 30 16 78 55 107 86 l53 58 35 -54 c107 -159
271 -166 452 -18 l61 50 37 -43 c83 -95 237 -136 373 -99 198 54 328 239 341
486 9 170 -34 298 -127 382 -83 75 -128 91 -250 92 -98 0 -110 -2 -173 -32
-171 -81 -277 -276 -277 -508 l0 -92 -44 -41 c-73 -68 -129 -87 -178 -61 -28
15 -57 86 -64 156 -6 54 -3 63 31 123 163 285 306 640 356 880 29 140 31 321
5 402 -38 118 -132 183 -231 159z m53 -246 c18 -51 11 -239 -13 -350 -28 -139
-188 -585 -204 -570 -12 13 45 545 75 693 48 238 107 332 142 227z m-4919
-127 c43 -123 -36 -352 -175 -505 -53 -58 -53 -58 -53 -28 -1 45 45 264 75
363 43 143 92 220 129 205 8 -2 18 -18 24 -35z m2750 0 c43 -123 -36 -352
-175 -505 -53 -58 -53 -58 -53 -28 -1 45 45 264 75 363 43 143 92 220 129 205
8 -2 18 -18 24 -35z m-1029 -811 c0 -41 -83 -414 -101 -457 -25 -58 -79 -110
-114 -110 -73 0 -101 42 -99 155 3 144 76 301 172 369 68 48 142 71 142 43z
m1800 0 c0 -41 -83 -414 -101 -457 -25 -58 -79 -110 -114 -110 -73 0 -101 42
-99 155 3 144 76 301 172 369 68 48 142 71 142 43z m928 -139 c0 -73 3 -167 7
-208 l7 -76 -42 -52 c-70 -89 -138 -115 -193 -72 -59 47 -58 207 3 337 43 94
153 201 207 203 9 0 12 -35 11 -132z m-6586 40 c5 -96 28 -150 89 -214 l39
-40 -14 -48 c-43 -144 -165 -199 -252 -115 -110 107 -74 411 56 480 19 11 44
19 56 19 20 0 22 -6 26 -82z m7627 54 c45 -33 65 -88 69 -187 2 -50 -1 -116
-7 -147 -37 -177 -201 -234 -273 -94 -44 86 -33 293 20 375 48 75 131 98 191
53z"/>
<path d="M11132 1893 c-42 -20 -58 -45 -111 -168 -94 -216 -141 -295 -286
-480 -63 -82 -75 -103 -75 -135 0 -53 27 -84 74 -84 32 0 46 9 107 70 78 77
150 170 199 257 17 31 36 57 41 57 17 0 109 -144 124 -194 8 -27 15 -53 15
-58 0 -4 -37 -6 -82 -2 -69 4 -89 2 -117 -13 -112 -59 -96 -200 28 -256 58
-26 168 -28 226 -3 103 44 173 125 201 235 30 120 9 184 -120 360 -109 149
-112 165 -52 306 31 72 32 101 7 115 -30 16 -141 12 -179 -7z"/>
</g>
</svg>
